<svg width="952" height="329" fill="none" xmlns="http://www.w3.org/2000/svg"><path d="M169 84 56 208h113V84zM23 251c-5.667 0-10 .833-13 2.5-2.667 1.333-4 4.167-4 8.5H0v-56L128.5 66.5c3.667-4 7-7.667 10-11 3-3.667 4.5-6.5 4.5-8.5 0-2.667-1-4.333-3-5-2-1-3.833-2-5.5-3v-6h97v6c-3 0-5.5.833-7.5 2.5s-3 4-3 7V208h16c4.333 0 7.667-.667 10-2 2.667-1.333 4-4.667 4-10h6v67.5h-6c0-5.667-1.333-9.167-4-10.5-2.333-1.333-5.667-2-10-2h-16v25c0 5.667 1 9.5 3 11.5 2.333 1.667 4.667 2.5 7 2.5v6h-75.5v-6c3.667 0 6.833-.833 9.5-2.5 2.667-2 4-5.833 4-11.5v-25H23z" fill="#C8C7C7"/><g clip-path="url(#a)"><path d="M630.655 164.869s-5.271-6.461-9.442-28.885l-.19-1.084c-3.927-23.706-.965-30.92-.965-30.92 1.073-2.604 4.511-9.25 16.372-14.047-2.894-.859-7.201-2.47-11.563-5.616-22.621-16.359-17.743-53.278-11.562-63.704 3.832-6.462 7.704-9.369 7.704-9.369 3.899-2.92 6.657-3.158 6.739-4.677.149-2.736-8.492-6.806-16.372-6.555-12.921.41-21.344 12.356-23.124 14.985a1420.222 1420.222 0 0 1-25.04 33.722c-29.211 38.149-59.726 74.949-59.726 74.949-12.337 14.879-21.223 25.278-27.472 33.55-6.25-8.272-15.122-18.671-27.472-33.55 0 0-30.502-36.8-59.727-74.95a1420.222 1420.222 0 0 1-25.04-33.721c-1.766-2.63-10.203-14.575-23.124-14.998-7.88-.25-16.535 3.82-16.372 6.554.082 1.52 2.853 1.771 6.739 4.678 0 0 3.872 2.907 7.704 9.369 6.182 10.425 11.059 47.345-11.562 63.704-4.362 3.158-8.669 4.77-11.563 5.616 11.875 4.797 15.299 11.456 16.372 14.046 0 0 2.962 7.202-.964 30.921l-.191 1.083c-4.171 22.424-9.442 28.886-9.442 28.886-6.698 8.232-16.331 7.069-16.372 10.32-.027 2.313 4.837 5.801 29.863 10.307 1.25 5.312 3.465 12.619 7.704 20.614 9.32 17.574 25.067 32.281 28.898 29.982 4.008-2.405-10.04-20.415-9.633-46.843.272-17.932 7.093-32.731 13.492-43.091-6.427 1.876-12.839 3.753-19.266 5.616 3.859-26.23 7.704-52.46 11.562-78.689 46.425 47.081 76.764 87.252 84.767 108.671 1.875 5.008 6.372 17.06 1.929 29.983-1.06 3.092-4.389 12.764-13.492 16.861-12.323 5.55-26.561-3.053-30.827-5.616-16.576-10.003-21.467-25.609-25.04-24.353-1.739.607-2.704 5.021 0 20.613.176.74.557 2.101 1.182 3.74 6.358 16.385 23.545 19.12 41.194 35.598 2.799 2.616 7.065 6.937 11.562 13.122 12.201-14.985 24.402-29.983 36.602-44.967.163-.225.326-.476.503-.701.163.238.34.476.503.701 12.2 14.984 24.401 29.982 36.602 44.967 4.497-6.185 8.763-10.506 11.562-13.122 17.649-16.478 34.849-19.213 41.194-35.598.639-1.639 1.006-3 1.182-3.74 2.704-15.592 1.739-20.006 0-20.613-3.573-1.256-8.478 14.363-25.04 24.353-4.252 2.563-18.505 11.166-30.828 5.616-9.089-4.097-12.418-13.769-13.491-16.861-4.443-12.923.054-24.961 1.929-29.983 8.003-21.419 38.342-61.59 84.767-108.67 3.858 26.229 7.703 52.458 11.562 78.688-6.427-1.876-12.839-3.753-19.266-5.616 6.399 10.36 13.206 25.159 13.492 43.091.407 26.428-13.641 44.438-9.633 46.843 3.831 2.299 19.578-12.408 28.898-29.982a85.288 85.288 0 0 0 7.704-20.614c25.026-4.506 29.89-7.994 29.863-10.307-.041-3.251-9.674-2.088-16.372-10.307h.027z" fill="#C8C7C7"/><path d="M357.485 311.769c0 2.881-.734 5.405-2.188 7.585-1.453 2.18-3.342 3.924-5.665 5.246-2.011 1.163-4.294 2.048-6.807 2.656-2.514.608-5.462.912-8.804.912-1.563 0-3.288-.027-5.163-.067-1.875-.039-2.921-.066-3.139-.066 0-.158 0-1.902.055-5.206.054-3.303.054-7.162.054-11.575 0-1.837 0-4.123-.027-6.872-.027-2.748-.041-5.827-.082-9.223.272 0 1.386 0 3.356-.026 1.97-.013 3.343-.027 4.131-.027 3.682 0 6.902.304 9.673.912 2.772.608 5.204 1.559 7.323 2.868 2.46 1.519 4.28 3.356 5.476 5.496 1.195 2.141 1.793 4.599 1.793 7.387h.014zm-8.587-.264c0-1.639-.367-3.132-1.114-4.493-.747-1.361-1.902-2.497-3.478-3.436a14.366 14.366 0 0 0-4.633-1.731c-1.671-.317-3.261-.475-4.755-.475h-.911c0 1.665-.027 3.25-.027 4.757v7.849c0 1.903 0 4.493.027 7.796h.829c1.508 0 3.111-.185 4.81-.555 1.684-.37 3.084-.859 4.171-1.48 1.698-.965 2.975-2.127 3.817-3.488.843-1.361 1.264-2.947 1.264-4.744zM396.22 326.08l-8.234 2.682c-.176-.542-.611-1.731-1.29-3.554a229.203 229.203 0 0 0-2.459-6.211h-12.853a193.762 193.762 0 0 0-2.514 6.263c-.693 1.837-1.114 3-1.277 3.515l-7.744-2.563c.448-.978 2.214-4.876 5.258-11.694 3.043-6.819 5.964-13.346 8.749-19.597h8.56a5261.388 5261.388 0 0 0 8.913 20.138c3.043 6.845 4.674 10.519 4.891 11.034v-.013zm-13.953-12.197c-.639-1.665-1.346-3.501-2.106-5.51a475.384 475.384 0 0 0-2.283-5.907h-.095a303.324 303.324 0 0 0-2.283 5.894 244.156 244.156 0 0 1-2.146 5.523v.027h8.926v-.027h-.013zM431.232 325.802l-7.717 2.921c-.625-.886-1.848-2.458-3.682-4.744a938.258 938.258 0 0 1-8.342-10.585l.122-.488c.557-.119 1.291-.397 2.201-.833.911-.436 1.672-.951 2.269-1.52.625-.607 1.101-1.242 1.413-1.916.326-.673.476-1.532.476-2.576s-.272-1.89-.802-2.683c-.53-.793-1.263-1.361-2.187-1.744a8.05 8.05 0 0 0-2.351-.581 23.812 23.812 0 0 0-2.35-.106h-1.508c0 1.942-.027 3.938-.041 5.973-.014 2.035 0 3.871 0 5.483 0 2.67 0 5.59.027 8.748.027 3.158.041 5.457.055 6.858h-8.356c0-1.295.041-3.198.068-5.708.027-2.511.041-6.224.041-11.14v-5.616c0-2.431-.041-5.906-.096-10.412.49 0 1.509-.013 3.044-.053a164.72 164.72 0 0 1 4.307-.053c2.513 0 4.687.079 6.521.225 1.834.145 3.587.489 5.218 1.03 2.336.754 4.075 1.864 5.217 3.33 1.141 1.467 1.698 3.119 1.698 4.942 0 2.101-.598 3.885-1.793 5.378-1.196 1.494-2.419 2.617-3.655 3.37v.145a198.159 198.159 0 0 0 5.584 6.541c1.984 2.22 3.519 4.149 4.633 5.788v.026h-.014zM443.936 328.035h-8.356c0-.555.041-2.418.068-5.589.027-3.171.041-7.347.041-12.553 0-1.93 0-4.202-.041-6.819-.041-2.616-.041-5.259-.068-7.902h8.356c0 2.392-.041 5.127-.055 8.219-.013 3.093-.027 5.881-.027 8.378 0 4.546 0 8.259.027 11.139.028 2.881.041 4.586.055 5.141v-.014zm22.322-2.418-7.445 3.026c-3.478-4.202-6.739-7.968-9.755-11.284-3.016-3.317-4.687-5.114-5.014-5.392v-.079c.897-1.097 2.704-3.33 5.422-6.699a406.293 406.293 0 0 0 8.274-10.611l7.323 2.973a332.089 332.089 0 0 0-7.228 8.629c-2.446 3.012-3.886 4.757-4.348 5.219v.04c.218.211 1.535 1.691 3.967 4.413 2.432 2.722 5.353 5.986 8.791 9.752l.013.013zM514.056 326.978l-8.057 1.493-4.239-22.133-.136-.039c-.448 1.017-1.454 3.316-3.002 6.897a347.88 347.88 0 0 0-4.701 11.417h-6.291a278.093 278.093 0 0 0-4.769-11.549c-1.617-3.673-2.595-5.92-2.948-6.739h-.122c-.163.78-.734 3.462-1.685 8.034a529.122 529.122 0 0 0-2.745 14.099l-7.812-1.453c1.766-7.664 3.288-14.575 4.552-20.759 1.263-6.184 2.01-9.739 2.214-10.69l8.098-.833c.231.634 1.168 2.973 2.799 6.99 1.63 4.017 3.532 8.629 5.706 13.796h.204c1.739-4.11 3.573-8.51 5.53-13.214 1.956-4.704 3.002-7.228 3.152-7.585l8.26.687c.082.555.693 3.885 1.834 10.003a1853.004 1853.004 0 0 0 4.171 21.565h-.013v.013zM553.253 311.611c0 2.616-.489 5.034-1.454 7.241a16.4 16.4 0 0 1-4.103 5.695c-1.671 1.506-3.532 2.63-5.598 3.356-2.065.727-4.279 1.097-6.643 1.097s-4.511-.344-6.563-1.044a16.333 16.333 0 0 1-5.475-3.132c-1.807-1.572-3.22-3.488-4.239-5.748-1.019-2.259-1.535-4.757-1.535-7.492 0-2.537.421-4.849 1.277-6.937.856-2.088 2.147-3.964 3.872-5.629 1.576-1.533 3.451-2.722 5.598-3.542 2.16-.819 4.497-1.229 7.01-1.229 2.514 0 4.769.384 6.875 1.137 2.106.766 3.967 1.876 5.571 3.356 1.793 1.652 3.152 3.581 4.048 5.788.897 2.207 1.345 4.559 1.345 7.083h.014zm-8.587.264c0-1.652-.285-3.29-.856-4.916-.57-1.625-1.44-2.973-2.622-4.03a8.064 8.064 0 0 0-2.554-1.612c-.965-.397-2.024-.595-3.207-.595-1.182 0-2.228.198-3.206.595-.978.396-1.875.991-2.704 1.784-1.046 1.017-1.861 2.286-2.432 3.819a13.443 13.443 0 0 0-.869 4.717c0 1.784.285 3.422.869 4.902.585 1.493 1.427 2.736 2.541 3.753a8.669 8.669 0 0 0 2.595 1.639c.992.409 2.065.607 3.234.607 1.168 0 2.187-.198 3.165-.594a8.54 8.54 0 0 0 2.663-1.692c1.033-.951 1.848-2.167 2.459-3.66.612-1.493.924-3.065.924-4.73v.013zM593.537 311.611c0 2.616-.489 5.034-1.454 7.241a16.4 16.4 0 0 1-4.103 5.695c-1.671 1.506-3.532 2.63-5.598 3.356-2.065.727-4.279 1.097-6.643 1.097s-4.511-.344-6.563-1.044c-2.051-.7-3.885-1.744-5.475-3.132a16.68 16.68 0 0 1-4.239-5.748c-1.019-2.259-1.535-4.757-1.535-7.492 0-2.537.421-4.849 1.277-6.937.842-2.088 2.133-3.964 3.872-5.629 1.576-1.533 3.451-2.722 5.598-3.542 2.146-.819 4.497-1.229 7.01-1.229 2.514 0 4.769.384 6.875 1.137 2.106.766 3.967 1.876 5.571 3.356 1.793 1.652 3.152 3.581 4.048 5.788.897 2.207 1.345 4.559 1.345 7.083h.014zm-8.587.264c0-1.652-.285-3.29-.856-4.916-.57-1.625-1.44-2.973-2.622-4.03a8.053 8.053 0 0 0-2.554-1.612c-.965-.397-2.024-.595-3.206-.595-1.183 0-2.229.198-3.207.595-.978.396-1.875.991-2.704 1.784-1.046 1.017-1.861 2.286-2.432 3.819a13.133 13.133 0 0 0-.869 4.717c0 1.784.285 3.422.869 4.902.585 1.493 1.427 2.736 2.541 3.753.734.687 1.603 1.229 2.595 1.639.992.409 2.065.607 3.234.607 1.168 0 2.187-.198 3.165-.594a8.393 8.393 0 0 0 2.663-1.692c1.033-.951 1.848-2.167 2.459-3.66.612-1.493.924-3.065.924-4.73v.013zM599.352 304.382c1.196-2.14 3.016-3.977 5.475-5.496 2.12-1.309 4.565-2.26 7.324-2.868 2.771-.608 5.991-.912 9.673-.912.788 0 2.174 0 4.13.027 1.97.013 3.085.026 3.356.026-.027 3.396-.054 6.475-.081 9.223-.027 2.749-.027 5.035-.027 6.872 0 4.413.013 8.272.054 11.575.027 3.304.054 5.035.054 5.206-.217 0-1.263.027-3.138.066a246.8 246.8 0 0 1-5.163.067c-3.342 0-6.277-.304-8.804-.912-2.527-.608-4.796-1.493-6.807-2.656a16.646 16.646 0 0 1-5.666-5.246c-1.453-2.167-2.187-4.704-2.187-7.585 0-2.881.598-5.246 1.793-7.387h.014zm8.057 11.853c.842 1.361 2.106 2.524 3.818 3.489 1.087.621 2.486 1.11 4.184 1.48 1.685.37 3.288.555 4.81.555h.829c.013-3.304.027-5.907.027-7.796v-7.849c0-1.507 0-3.093-.027-4.758h-.911c-1.494 0-3.084.159-4.755.476-1.671.317-3.22.899-4.633 1.731-1.576.938-2.744 2.075-3.478 3.436-.734 1.361-1.114 2.854-1.114 4.493 0 1.797.421 3.382 1.263 4.743h-.013z" fill="#EBEBEB"/></g><path d="M864 84 751 208h113V84zM718 251c-5.667 0-10 .833-13 2.5-2.667 1.333-4 4.167-4 8.5h-6v-56L823.5 66.5c3.667-4 7-7.667 10-11 3-3.667 4.5-6.5 4.5-8.5 0-2.667-1-4.333-3-5-2-1-3.833-2-5.5-3v-6h97v6c-3 0-5.5.833-7.5 2.5s-3 4-3 7V208h16c4.333 0 7.667-.667 10-2 2.667-1.333 4-4.667 4-10h6v67.5h-6c0-5.667-1.333-9.167-4-10.5-2.333-1.333-5.667-2-10-2h-16v25c0 5.667 1 9.5 3 11.5 2.333 1.667 4.667 2.5 7 2.5v6h-75.5v-6c3.667 0 6.833-.833 9.5-2.5 2.667-2 4-5.833 4-11.5v-25H718z" fill="#C8C7C7"/><defs><clipPath id="a"><path fill="#fff" transform="translate(305)" d="M0 0h342v329H0z"/></clipPath></defs></svg>