<svg width="21" height="21" viewBox="0 0 21 21" fill="none" xmlns="http://www.w3.org/2000/svg">
<path d="M11.1212 15.4963L15.4962 11.1213C15.5759 11.0381 15.6383 10.9399 15.68 10.8325C15.7675 10.6195 15.7675 10.3806 15.68 10.1675C15.6383 10.0601 15.5759 9.96201 15.4962 9.87879L11.1212 5.50379C11.0396 5.42221 10.9428 5.35749 10.8362 5.31334C10.7296 5.26919 10.6153 5.24646 10.5 5.24646C10.267 5.24646 10.0435 5.33902 9.87872 5.50379C9.71395 5.66856 9.62139 5.89203 9.62139 6.12504C9.62139 6.35805 9.71395 6.58152 9.87872 6.74629L12.7662 9.62504H6.12497C5.89291 9.62504 5.67034 9.71723 5.50625 9.88132C5.34216 10.0454 5.24997 10.268 5.24997 10.5C5.24997 10.7321 5.34216 10.9547 5.50625 11.1188C5.67034 11.2829 5.89291 11.375 6.12497 11.375H12.7662L9.87872 14.2538C9.79671 14.3351 9.73161 14.4319 9.68719 14.5385C9.64277 14.6452 9.6199 14.7595 9.6199 14.875C9.6199 14.9906 9.64277 15.1049 9.68719 15.2115C9.73161 15.3182 9.79671 15.4149 9.87872 15.4963C9.96006 15.5783 10.0568 15.6434 10.1635 15.6878C10.2701 15.7322 10.3845 15.7551 10.5 15.7551C10.6155 15.7551 10.7298 15.7322 10.8365 15.6878C10.9431 15.6434 11.0399 15.5783 11.1212 15.4963Z" fill="black"/>
</svg>
