<svg width="48" height="48" fill="none" xmlns="http://www.w3.org/2000/svg"><path d="M28.596 24a4.597 4.597 0 1 1-9.194 0 4.597 4.597 0 0 1 9.194 0zm6.144-8.124a4.216 4.216 0 0 0-1.032-1.584 4.216 4.216 0 0 0-1.584-1.032c-.48-.192-1.212-.408-2.556-.48-1.452-.072-1.884-.084-5.568-.084-3.684 0-4.116.012-5.568.084-1.344.06-2.076.288-2.556.48-.6.216-1.14.576-1.584 1.032a4.216 4.216 0 0 0-1.032 1.584c-.192.48-.408 1.212-.48 2.556-.072 1.452-.084 1.884-.084 5.568 0 3.684.012 4.116.084 5.568.06 1.344.288 2.076.48 2.556.216.6.576 1.14 1.032 1.584.444.456.984.816 1.584 1.032.48.192 1.212.408 2.556.48 1.452.072 1.884.084 5.568.084 3.684 0 4.116-.012 5.568-.084 1.344-.06 2.076-.288 2.556-.48a4.601 4.601 0 0 0 2.616-2.616c.192-.48.408-1.212.48-2.556.072-1.452.084-1.884.084-5.568 0-3.684-.012-4.116-.084-5.568-.06-1.344-.288-2.076-.48-2.556zM24 31.08A7.078 7.078 0 0 1 16.92 24 7.078 7.078 0 0 1 24 16.92 7.078 7.078 0 0 1 31.08 24 7.078 7.078 0 0 1 24 31.08zm7.356-12.78a1.66 1.66 0 0 1-1.656-1.656 1.66 1.66 0 0 1 1.656-1.656 1.66 1.66 0 0 1 1.656 1.656 1.66 1.66 0 0 1-1.656 1.656zM24 0C10.752 0 0 10.752 0 24s10.752 24 24 24 24-10.752 24-24S37.248 0 24 0zm13.704 29.676c-.072 1.464-.3 2.472-.636 3.348a7.093 7.093 0 0 1-4.032 4.032c-.876.336-1.884.576-3.348.636-1.464.072-1.944.084-5.676.084-3.744 0-4.212-.012-5.688-.084-1.464-.072-2.472-.3-3.348-.636a6.74 6.74 0 0 1-2.436-1.584 6.685 6.685 0 0 1-1.584-2.436c-.336-.876-.576-1.884-.636-3.348-.084-1.476-.096-1.944-.096-5.688 0-3.744.012-4.212.084-5.676.072-1.464.3-2.472.636-3.348a6.615 6.615 0 0 1 1.596-2.436 6.685 6.685 0 0 1 2.436-1.584c.876-.336 1.884-.576 3.348-.636 1.464-.072 1.944-.084 5.676-.084s4.212.012 5.676.084c1.464.072 2.472.3 3.348.636a6.615 6.615 0 0 1 2.436 1.596 6.685 6.685 0 0 1 1.584 2.436c.336.876.576 1.884.636 3.348.072 1.464.084 1.944.084 5.676s0 4.2-.06 5.664z" fill="#888"/></svg>