<svg width="48" height="48" fill="none" xmlns="http://www.w3.org/2000/svg"><g fill="#888" clip-path="url(#a)"><path d="M45.706 24.053s-.74-.943-1.325-4.214l-.027-.158c-.551-3.459-.135-4.511-.135-4.511.15-.38.633-1.35 2.297-2.05a5.314 5.314 0 0 1-1.622-.819c-3.175-2.386-2.49-7.773-1.623-9.294.538-.942 1.081-1.366 1.081-1.366.547-.426.934-.461.946-.683.02-.399-1.192-.993-2.298-.956-1.813.06-2.995 1.802-3.245 2.186-.78 1.126-1.99 2.85-3.515 4.92-4.1 5.565-8.382 10.934-8.382 10.934-1.732 2.171-2.979 3.688-3.856 4.895-.877-1.207-2.122-2.724-3.856-4.895 0 0-4.28-5.369-8.382-10.934a206.84 206.84 0 0 1-3.515-4.92C8.001 1.804 6.817.062 5.004 0 3.898-.037 2.683.557 2.706.956c.011.222.4.259.946.683 0 0 .543.424 1.08 1.366.869 1.522 1.553 6.908-1.622 9.294a5.228 5.228 0 0 1-1.623.82c1.667.7 2.148 1.671 2.298 2.049 0 0 .416 1.05-.135 4.511l-.027.158c-.585 3.272-1.325 4.214-1.325 4.214C1.358 25.252.006 25.083 0 25.557c-.004.337.679.846 4.191 1.504a12.84 12.84 0 0 0 1.082 3.007c1.308 2.564 3.518 4.71 4.055 4.374.563-.35-1.409-2.978-1.351-6.834.038-2.616.995-4.775 1.893-6.287-.902.274-1.802.548-2.704.82L8.79 10.66c6.516 6.868 10.774 12.729 11.897 15.854.263.73.894 2.489.27 4.374-.148.451-.615 1.862-1.893 2.46-1.73.81-3.728-.445-4.327-.82-2.326-1.459-3.013-3.735-3.514-3.552-.244.088-.38.732 0 3.007.025.108.078.307.166.546.892 2.39 3.305 2.79 5.782 5.193.392.382.991 1.012 1.622 1.915l5.137-6.56c.023-.034.046-.07.071-.103l.07.102 5.138 6.56a13.224 13.224 0 0 1 1.623-1.914c2.476-2.404 4.89-2.803 5.781-5.193.09-.24.141-.438.166-.546.38-2.275.244-2.919 0-3.007-.502-.183-1.19 2.095-3.514 3.553-.597.374-2.598 1.629-4.327.82-1.276-.599-1.743-2.01-1.894-2.46-.623-1.886.008-3.642.271-4.375 1.123-3.125 5.381-8.986 11.897-15.854l1.623 11.48c-.902-.274-1.802-.548-2.704-.82.898 1.512 1.853 3.671 1.893 6.287.058 3.856-1.914 6.483-1.351 6.834.537.336 2.747-1.81 4.056-4.374a12.754 12.754 0 0 0 1.08-3.007c3.513-.658 4.196-1.167 4.192-1.504-.006-.474-1.358-.305-2.298-1.504h.004zM7.366 45.484c0 .42-.102.789-.307 1.107-.204.318-.469.573-.795.765-.282.17-.602.3-.955.388a5.114 5.114 0 0 1-1.236.133c-.219 0-.461-.004-.724-.01l-.44-.01c0-.023 0-.277.007-.759s.007-1.045.007-1.689c0-.268 0-.601-.003-1.002-.004-.401-.006-.85-.012-1.346.038 0 .195 0 .471-.004l.58-.003c.517 0 .969.044 1.358.133.389.088.73.227 1.027.418.346.222.601.49.769.802.168.312.252.67.252 1.078h.001zm-1.205-.038c0-.24-.051-.457-.156-.655a1.314 1.314 0 0 0-.488-.502 1.965 1.965 0 0 0-.65-.252 3.456 3.456 0 0 0-.668-.07h-.128c0 .243-.003.475-.003.694v1.145c0 .278 0 .656.003 1.138h.117c.211 0 .436-.027.675-.081.236-.054.433-.125.585-.216.239-.14.418-.31.536-.509.118-.198.177-.43.177-.692zM12.803 47.572l-1.156.392c-.024-.08-.085-.253-.18-.519a33.86 33.86 0 0 0-.346-.906H9.317a29.08 29.08 0 0 0-.353.914c-.097.268-.156.437-.179.513l-1.087-.374c.063-.143.311-.712.738-1.706l1.228-2.86h1.202c.406.96.823 1.94 1.25 2.938.428 1 .657 1.535.687 1.61v-.002zm-1.958-1.779c-.09-.243-.19-.51-.296-.804-.107-.293-.213-.58-.32-.862h-.014c-.09.232-.196.519-.32.86-.124.341-.225.611-.301.806v.004h1.253v-.004h-.002zM17.716 47.532l-1.083.426c-.087-.13-.259-.359-.516-.692-.258-.334-.649-.846-1.171-1.544l.017-.072c.078-.017.181-.057.309-.121s.235-.139.318-.222a.955.955 0 0 0 .199-.28.895.895 0 0 0 .066-.375.692.692 0 0 0-.112-.392.666.666 0 0 0-.307-.254 1.1 1.1 0 0 0-.33-.085 3.238 3.238 0 0 0-.33-.015h-.211c0 .283-.004.574-.006.871-.002.297 0 .565 0 .8 0 .39 0 .816.004 1.276l.007 1h-1.172c0-.188.005-.466.009-.832.004-.366.006-.908.006-1.625v-.82c0-.354-.006-.861-.014-1.519.069 0 .212-.002.428-.007.215-.006.417-.008.604-.008.353 0 .658.012.915.033.258.021.504.071.732.15.329.11.573.272.733.486.16.214.238.455.238.721 0 .306-.084.567-.252.785a2.06 2.06 0 0 1-.512.491v.021c.244.313.507.63.783.955.279.324.494.605.65.844v.004h-.002zM19.5 47.858h-1.173c0-.081.006-.353.01-.816.003-.462.005-1.072.005-1.831 0-.282 0-.613-.005-.995-.006-.382-.006-.767-.01-1.153H19.5c0 .35-.006.748-.008 1.2-.002.45-.004.857-.004 1.221 0 .664 0 1.205.004 1.626.004.42.006.669.008.75v-.002zm3.133-.353-1.045.441a46.593 46.593 0 0 0-2.073-2.432v-.012c.126-.16.38-.486.761-.977.381-.492.77-1.009 1.161-1.548l1.028.433c-.334.4-.671.82-1.014 1.26-.344.439-.546.693-.61.76v.006c.03.031.215.247.556.644.342.397.752.873 1.234 1.423l.002.002zM29.342 47.703l-1.131.218-.595-3.229-.02-.006c-.062.149-.203.484-.42 1.007a51.937 51.937 0 0 0-.66 1.665h-.883a41.653 41.653 0 0 0-.67-1.684c-.226-.536-.364-.864-.413-.984h-.017l-.237 1.172a79.366 79.366 0 0 0-.385 2.057l-1.097-.212c.248-1.118.462-2.126.64-3.028.177-.903.281-1.421.31-1.56l1.137-.121c.032.092.164.433.392 1.02.23.585.496 1.258.801 2.012h.029c.244-.6.501-1.241.776-1.928l.442-1.106 1.16.1a278.643 278.643 0 0 0 .843 4.606h-.002v.001zM34.843 45.461a2.7 2.7 0 0 1-.204 1.057 2.391 2.391 0 0 1-1.362 1.32c-.29.106-.6.16-.932.16a2.71 2.71 0 0 1-.921-.152 2.275 2.275 0 0 1-.769-.457 2.403 2.403 0 0 1-.595-.838 2.718 2.718 0 0 1-.215-1.093c0-.37.059-.708.179-1.012a2.406 2.406 0 0 1 1.33-1.338c.302-.12.63-.18.983-.18s.67.056.965.166a2.337 2.337 0 0 1 1.35 1.334c.126.322.189.665.189 1.033h.002zm-1.206.039c0-.241-.04-.48-.12-.717a1.396 1.396 0 0 0-.368-.588 1.13 1.13 0 0 0-.809-.322c-.165 0-.312.029-.45.087a1.195 1.195 0 0 0-.379.26 1.497 1.497 0 0 0-.341.557 2.03 2.03 0 0 0-.122.688c0 .26.04.5.122.715.082.218.2.4.357.548.104.1.225.18.364.239.139.06.29.089.454.089.164 0 .307-.03.444-.087.137-.058.263-.139.374-.247.145-.139.259-.316.345-.534.086-.218.13-.447.13-.69v.002zM40.496 45.461a2.7 2.7 0 0 1-.204 1.057 2.39 2.39 0 0 1-1.362 1.32c-.29.106-.6.16-.932.16a2.71 2.71 0 0 1-.921-.152 2.256 2.256 0 0 1-.768-.457 2.43 2.43 0 0 1-.595-.838 2.718 2.718 0 0 1-.216-1.093c0-.37.06-.708.18-1.012.117-.305.299-.579.543-.822.221-.223.484-.397.785-.516.302-.12.632-.18.984-.18.353 0 .67.056.965.166a2.337 2.337 0 0 1 1.35 1.334c.126.322.19.665.19 1.033h.001zm-1.205.039c0-.241-.04-.48-.12-.717a1.395 1.395 0 0 0-.368-.588c-.103-.1-.223-.18-.359-.235a1.129 1.129 0 0 0-.45-.087c-.166 0-.313.029-.45.087a1.194 1.194 0 0 0-.38.26 1.496 1.496 0 0 0-.34.557 1.984 1.984 0 0 0-.123.688c0 .26.04.5.122.715.082.218.2.4.357.548.103.1.225.18.364.239.14.06.29.089.454.089a1.172 1.172 0 0 0 .818-.334c.145-.139.26-.316.345-.534.086-.218.13-.447.13-.69v.002zM41.312 44.407c.168-.312.424-.58.769-.802.297-.19.64-.33 1.027-.418.39-.09.841-.133 1.358-.133.11 0 .305 0 .58.003l.47.004-.01 1.346c-.004.4-.004.734-.004 1.002 0 .644.002 1.207.007 1.69.004.481.008.734.008.759l-.44.01c-.264.005-.506.009-.725.009-.47 0-.881-.044-1.236-.133a3.48 3.48 0 0 1-.955-.388 2.37 2.37 0 0 1-.795-.765 2 2 0 0 1-.307-1.107c0-.42.084-.765.251-1.077h.002zm1.131 1.73c.118.198.296.367.536.508.152.09.349.162.587.216.237.054.462.081.675.081h.117l.003-1.137v-1.146c0-.22 0-.45-.003-.694h-.128c-.21 0-.433.024-.668.07a1.965 1.965 0 0 0-.65.252 1.3 1.3 0 0 0-.488.502 1.401 1.401 0 0 0-.156.655c0 .262.059.494.177.692h-.002z"/></g><defs><clipPath id="a"><path fill="#fff" d="M0 0h48v48H0z"/></clipPath></defs></svg>