<svg width="104" height="100" fill="none" xmlns="http://www.w3.org/2000/svg"><g clip-path="url(#a)" fill="#EBEBEB"><path d="M99.03 50.112s-1.603-1.964-2.872-8.78l-.058-.329c-1.194-7.205-.293-9.398-.293-9.398.326-.792 1.372-2.812 4.979-4.27-.88-.26-2.19-.75-3.516-1.707-6.88-4.972-5.396-16.194-3.516-19.363 1.165-1.964 2.342-2.847 2.342-2.847 1.186-.888 2.025-.96 2.05-1.422.045-.832-2.583-2.069-4.979-1.992-3.93.124-6.49 3.755-7.032 4.554a431.338 431.338 0 0 1-7.614 10.25C69.638 26.403 60.358 37.59 60.358 37.59c-3.751 4.523-6.453 7.683-8.354 10.198-1.9-2.515-4.598-5.675-8.354-10.198 0 0-9.275-11.186-18.162-22.78a431.62 431.62 0 0 1-7.615-10.25c-.537-.8-3.103-4.43-7.032-4.56C8.445-.076 5.813 1.16 5.863 1.993c.025.462.867.538 2.049 1.422 0 0 1.177.883 2.343 2.847 1.88 3.17 3.363 14.391-3.516 19.363a11.51 11.51 0 0 1-3.516 1.707c3.61 1.458 4.652 3.482 4.978 4.27 0 0 .9 2.189-.293 9.398l-.058.33c-1.268 6.815-2.871 8.78-2.871 8.78C2.942 52.61.012 52.256 0 53.244c-.008.703 1.47 1.763 9.081 3.133a26.081 26.081 0 0 0 2.343 6.265c2.834 5.342 7.623 9.812 8.788 9.114 1.218-.732-3.053-6.206-2.93-14.239.083-5.45 2.157-9.948 4.103-13.097-1.954.57-3.904 1.14-5.859 1.707 1.174-7.973 2.343-15.945 3.517-23.918C33.16 36.52 42.386 48.73 44.819 55.241c.57 1.522 1.938 5.185.587 9.113-.322.94-1.334 3.88-4.103 5.125-3.747 1.687-8.077-.928-9.374-1.707-5.04-3.04-6.528-7.784-7.615-7.402-.529.185-.822 1.526 0 6.266.054.225.17.638.36 1.136 1.933 4.98 7.16 5.812 12.527 10.82a27.881 27.881 0 0 1 3.516 3.989c3.71-4.555 7.42-9.114 11.13-13.668.05-.068.1-.145.153-.213.05.072.103.145.153.213l11.13 13.668a27.882 27.882 0 0 1 3.516-3.989c5.367-5.008 10.598-5.84 12.527-10.82a8.87 8.87 0 0 0 .36-1.136c.822-4.74.529-6.081 0-6.266-1.087-.381-2.578 4.366-7.615 7.402-1.293.78-5.627 3.394-9.374 1.707-2.764-1.245-3.777-4.185-4.103-5.125-1.351-3.928.017-7.587.587-9.113 2.433-6.51 11.659-18.72 25.777-33.03 1.173 7.972 2.342 15.944 3.516 23.917-1.955-.57-3.905-1.14-5.859-1.707 1.946 3.149 4.016 7.647 4.103 13.097.124 8.033-4.148 13.507-2.93 14.239 1.166.698 5.954-3.772 8.788-9.114a25.898 25.898 0 0 0 2.343-6.265c7.61-1.37 9.089-2.43 9.081-3.133-.012-.988-2.942-.635-4.978-3.133h.008zM15.96 94.763c0 .875-.223 1.642-.665 2.305a5.018 5.018 0 0 1-1.723 1.594 7.766 7.766 0 0 1-2.07.808c-.764.184-1.66.277-2.677.277-.475 0-1-.008-1.57-.02-.57-.012-.888-.02-.954-.02 0-.048 0-.579.016-1.583.017-1.004.017-2.177.017-3.518 0-.558 0-1.253-.008-2.089-.009-.835-.013-1.77-.025-2.803.082 0 .421 0 1.02-.008.6-.004 1.017-.008 1.256-.008 1.12 0 2.1.092 2.942.277.843.185 1.582.474 2.227.872.748.461 1.301 1.02 1.665 1.67.364.651.545 1.398.545 2.246h.004zm-2.61-.08c0-.499-.112-.953-.34-1.366-.227-.414-.578-.76-1.057-1.045-.43-.253-.9-.43-1.41-.526a7.781 7.781 0 0 0-1.445-.144H8.82c0 .506-.008.988-.008 1.445v2.386c0 .579 0 1.366.008 2.37h.252c.459 0 .946-.056 1.463-.169.512-.112.938-.26 1.268-.45.516-.293.905-.646 1.161-1.06.256-.414.384-.896.384-1.442zM27.74 99.112l-2.504.816a38.294 38.294 0 0 0-.392-1.08 69.414 69.414 0 0 0-.748-1.888h-3.909c-.297.71-.553 1.345-.764 1.903-.21.559-.339.912-.388 1.069l-2.355-.78c.136-.297.673-1.482 1.599-3.554.925-2.073 1.813-4.057 2.66-5.956h2.603c.88 2 1.785 4.04 2.71 6.12.926 2.081 1.422 3.198 1.488 3.354v-.004zm-4.243-3.707c-.194-.506-.41-1.064-.64-1.675-.232-.61-.463-1.209-.695-1.795h-.029c-.194.482-.425 1.08-.694 1.791-.268.711-.487 1.273-.652 1.68v.007H23.5v-.008h-.004zM38.386 99.028l-2.346.888c-.19-.27-.562-.747-1.12-1.442a284.847 284.847 0 0 1-2.537-3.217l.037-.149c.17-.036.393-.12.67-.253.276-.133.508-.29.69-.462.19-.185.334-.377.43-.582.099-.205.144-.466.144-.784 0-.317-.083-.574-.244-.815a1.435 1.435 0 0 0-.665-.53 2.451 2.451 0 0 0-.715-.177 7.315 7.315 0 0 0-.715-.032h-.458c0 .59-.008 1.197-.013 1.816-.004.618 0 1.176 0 1.666 0 .812 0 1.7.009 2.66l.016 2.084h-2.54c0-.394.012-.972.02-1.735.008-.763.012-1.892.012-3.386V92.87c0-.74-.012-1.795-.029-3.165.15 0 .46-.004.926-.016a50.38 50.38 0 0 1 1.31-.016c.764 0 1.425.024 1.983.068.558.044 1.09.149 1.586.313.71.23 1.24.567 1.587 1.012.347.446.516.948.516 1.503 0 .638-.181 1.18-.545 1.634-.364.454-.736.796-1.112 1.025v.044a60.49 60.49 0 0 0 1.699 1.988c.603.675 1.07 1.26 1.409 1.759v.008h-.005zM42.25 99.707h-2.541c0-.169.012-.735.02-1.7.009-.963.013-2.232.013-3.815 0-.586 0-1.277-.012-2.072-.013-.796-.013-1.599-.021-2.402h2.54c0 .727-.012 1.558-.016 2.498-.004.94-.008 1.788-.008 2.547 0 1.381 0 2.51.008 3.385.009.876.013 1.394.017 1.563v-.004zm6.788-.735-2.264.92a98.039 98.039 0 0 0-2.967-3.43c-.917-1.009-1.425-1.555-1.524-1.64V94.8c.273-.334.822-1.012 1.648-2.037.827-1.024 1.67-2.1 2.517-3.225l2.227.904c-.723.831-1.455 1.707-2.198 2.623-.744.915-1.182 1.446-1.323 1.586v.012c.066.064.467.514 1.207 1.342.74.827 1.628 1.819 2.673 2.964l.004.004zM63.573 99.385l-2.45.454-1.289-6.727-.041-.012a367.8 367.8 0 0 0-.913 2.096c-.471 1.089-.95 2.246-1.43 3.47h-1.913a84.82 84.82 0 0 0-1.45-3.51c-.492-1.116-.79-1.8-.897-2.048h-.037c-.05.237-.223 1.052-.512 2.442-.29 1.39-.57 2.815-.835 4.285l-2.375-.442c.537-2.33 1-4.43 1.384-6.31.384-1.879.611-2.96.673-3.249l2.463-.253c.07.193.355.904.85 2.125a357.4 357.4 0 0 0 1.736 4.193h.062c.529-1.249 1.087-2.586 1.682-4.016l.958-2.306 2.512.21c.025.168.21 1.18.558 3.04.347 1.86.768 4.044 1.268 6.554h-.004v.004zM75.492 94.714c0 .796-.149 1.53-.442 2.201-.293.671-.71 1.25-1.248 1.731-.508.458-1.074.8-1.702 1.02a6.046 6.046 0 0 1-2.02.334 6.084 6.084 0 0 1-1.996-.317 4.97 4.97 0 0 1-1.665-.952 5.019 5.019 0 0 1-1.289-1.747 5.474 5.474 0 0 1-.467-2.278c0-.77.128-1.474.389-2.108a4.998 4.998 0 0 1 1.177-1.711 4.948 4.948 0 0 1 1.702-1.077 5.963 5.963 0 0 1 2.132-.373c.764 0 1.45.116 2.09.345a4.976 4.976 0 0 1 2.926 2.78 5.65 5.65 0 0 1 .409 2.152h.004zm-2.611.08c0-.501-.087-1-.26-1.493a2.893 2.893 0 0 0-.798-1.225 2.533 2.533 0 0 0-1.752-.67c-.36-.001-.677.06-.975.18-.297.12-.57.3-.822.542a3.1 3.1 0 0 0-.74 1.16 4.082 4.082 0 0 0-.264 1.434c0 .543.087 1.04.264 1.49.178.454.434.832.773 1.141.227.209.488.374.79.498.3.125.627.185.983.185.355 0 .665-.06.962-.18.298-.121.57-.29.81-.515.314-.29.562-.659.748-1.112.186-.454.28-.932.28-1.438v.004zM87.742 94.714c0 .796-.149 1.53-.442 2.201-.293.671-.71 1.25-1.248 1.731-.508.458-1.074.8-1.702 1.02a6.046 6.046 0 0 1-2.02.334 6.084 6.084 0 0 1-1.996-.317 4.93 4.93 0 0 1-1.665-.952 5.072 5.072 0 0 1-1.29-1.747 5.476 5.476 0 0 1-.466-2.278c0-.77.128-1.474.389-2.108a4.888 4.888 0 0 1 1.177-1.711 4.95 4.95 0 0 1 1.702-1.077 5.947 5.947 0 0 1 2.132-.373c.764 0 1.45.116 2.09.345a4.976 4.976 0 0 1 2.926 2.78 5.65 5.65 0 0 1 .409 2.152h.004zm-2.611.08c0-.501-.087-1-.26-1.493a2.893 2.893 0 0 0-.798-1.225 2.533 2.533 0 0 0-1.752-.67c-.36-.001-.677.06-.975.18-.297.12-.57.3-.822.542a3.1 3.1 0 0 0-.74 1.16 3.992 3.992 0 0 0-.264 1.434c0 .543.087 1.04.264 1.49.178.454.434.832.773 1.141a2.583 2.583 0 0 0 1.773.683 2.55 2.55 0 0 0 1.772-.695c.314-.29.562-.659.748-1.112.186-.454.28-.932.28-1.438v.004zM89.51 92.517c.364-.65.918-1.209 1.665-1.67.645-.398 1.389-.687 2.227-.872.843-.185 1.822-.277 2.942-.277.24 0 .661 0 1.256.008l1.02.008-.024 2.803c-.008.836-.008 1.53-.008 2.089 0 1.341.004 2.514.016 3.518.008 1.004.017 1.53.017 1.583-.066 0-.385.008-.955.02s-1.095.02-1.57.02c-1.016 0-1.909-.093-2.677-.277a7.712 7.712 0 0 1-2.07-.808 5.057 5.057 0 0 1-1.723-1.594c-.442-.659-.665-1.43-.665-2.305 0-.876.182-1.595.545-2.246h.004zm2.45 3.603c.257.414.64.767 1.161 1.06.331.19.757.338 1.273.45.512.113 1 .169 1.462.169h.253c.004-1.004.008-1.795.008-2.37v-2.386c0-.457 0-.94-.008-1.445h-.277c-.455 0-.938.048-1.446.144-.508.097-.98.273-1.41.526-.478.285-.834.63-1.057 1.045a2.83 2.83 0 0 0-.339 1.365c0 .546.128 1.028.385 1.442h-.005z"/></g><defs><clipPath id="a"><path fill="#fff" d="M0 0h104v100H0z"/></clipPath></defs></svg>