<svg width="93" height="93" fill="none" xmlns="http://www.w3.org/2000/svg"><path d="M17.546 32.599c-1.07 1.266-2.78 2.265-4.491 2.123-.214-1.713.624-3.532 1.604-4.656 1.069-1.302 2.94-2.23 4.455-2.3.178 1.783-.517 3.531-1.568 4.833zm1.55 2.461c-2.477-.142-4.598 1.41-5.774 1.41-1.194 0-2.993-1.338-4.954-1.303-2.548.036-4.918 1.48-6.219 3.782-2.673 4.601-.695 11.415 1.889 15.16 1.265 1.855 2.78 3.888 4.776 3.817 1.889-.071 2.637-1.23 4.918-1.23 2.299 0 2.958 1.23 4.954 1.194 2.067-.035 3.368-1.855 4.633-3.71 1.444-2.104 2.032-4.155 2.068-4.262-.036-.036-3.992-1.552-4.028-6.118-.036-3.817 3.119-5.636 3.261-5.743-1.782-2.64-4.562-2.925-5.524-2.997zm14.31-5.172v27.806h4.312v-9.507h5.97c5.453 0 9.284-3.745 9.284-9.167s-3.76-9.132-9.142-9.132H33.406zm4.312 3.638h4.972c3.742 0 5.88 1.998 5.88 5.512 0 3.513-2.138 5.529-5.898 5.529h-4.954v-11.04zm23.13 24.382c2.71 0 5.222-1.373 6.362-3.55h.09v3.336h3.991v-13.84c0-4.014-3.207-6.6-8.144-6.6-4.58 0-7.965 2.622-8.09 6.225h3.885c.32-1.712 1.907-2.836 4.08-2.836 2.638 0 4.117 1.23 4.117 3.496v1.534l-5.382.32c-5.007.304-7.716 2.355-7.716 5.922 0 3.603 2.798 5.993 6.808 5.993zm1.159-3.3c-2.299 0-3.76-1.105-3.76-2.8 0-1.748 1.408-2.764 4.098-2.925l4.794-.303v1.57c0 2.604-2.21 4.459-5.132 4.459zm14.612 10.649c4.206 0 6.184-1.606 7.912-6.475l7.574-21.26h-4.384l-5.079 16.427h-.088l-5.08-16.427h-4.508l7.306 20.243-.392 1.231c-.659 2.087-1.728 2.89-3.635 2.89-.339 0-.998-.036-1.265-.072v3.335c.25.072 1.319.108 1.64.108z" fill="#fff"/></svg>