<svg width="100" height="19" fill="none" xmlns="http://www.w3.org/2000/svg"><path d="m94.274 7.263 2.138 5.163h.025l2.088-5.163H100l-4.5 10.364h-1.4L95.775 14l-2.963-6.738h1.462zm-4.85-.238c1 0 1.787.263 2.362.8.576.538.863 1.263.863 2.2v4.439h-1.288v-1H91.3c-.563.825-1.3 1.237-2.226 1.237-.787 0-1.45-.237-1.987-.7-.538-.475-.8-1.063-.8-1.762 0-.738.275-1.338.85-1.776.563-.437 1.313-.662 2.25-.662.8 0 1.463.15 1.988.437v-.312c0-.475-.188-.863-.563-1.2a1.942 1.942 0 0 0-1.312-.488c-.75 0-1.35.313-1.788.95l-1.188-.75c.65-.938 1.626-1.413 2.9-1.413zm-6.826-3.088c.912 0 1.688.3 2.325.913.65.613.962 1.35.962 2.213 0 .887-.325 1.638-.962 2.225-.625.6-1.4.9-2.325.9h-2.226v4.263h-1.35V3.937h3.576zm7 6.926c-.55 0-1 .138-1.375.4-.362.275-.55.6-.55.988 0 .35.15.65.45.875.3.238.65.35 1.05.35.563 0 1.076-.212 1.526-.625.45-.425.662-.913.662-1.488-.425-.337-1.013-.5-1.763-.5zM82.636 5.25h-2.263v3.663h2.263c.538 0 .988-.175 1.338-.537.362-.363.537-.788.537-1.288a1.74 1.74 0 0 0-.537-1.275c-.35-.375-.8-.563-1.338-.563zM59.945 7.038c.912 0 1.638.4 2.013.85h.062v-.625h1.6v6.876c0 2.825-1.662 3.988-3.637 3.988-1.851 0-2.964-1.25-3.389-2.263l1.463-.613c.262.625.9 1.363 1.925 1.363 1.263 0 2.038-.788 2.038-2.25v-.55h-.062c-.375.462-1.1.875-2.013.875-1.913 0-3.663-1.663-3.663-3.813 0-2.163 1.75-3.838 3.663-3.838zm11.001.012c1.988 0 2.95 1.576 3.276 2.438l.175.438-5.113 2.113c.387.762 1 1.162 1.85 1.162.85-.025 1.45-.437 1.888-1.075l1.3.875c-.425.625-1.438 1.7-3.188 1.7-2.175 0-3.788-1.675-3.788-3.825 0-2.275 1.638-3.826 3.6-3.826zM33.517 2.812c1.813 0 3.1.713 4.063 1.638L36.43 5.6c-.7-.65-1.637-1.162-2.925-1.162-2.388 0-4.263 1.925-4.263 4.313 0 2.387 1.863 4.313 4.263 4.313 1.55 0 2.438-.625 3-1.188.463-.462.763-1.125.888-2.038h-3.926V8.213h5.501c.063.288.088.638.088 1.013 0 1.212-.338 2.725-1.4 3.8-1.05 1.088-2.376 1.663-4.139 1.663-3.275 0-6.025-2.663-6.025-5.938 0-3.276 2.75-5.939 6.025-5.939zm9.94 4.226c2.112 0 3.838 1.613 3.838 3.825 0 2.2-1.726 3.826-3.838 3.826-2.113 0-3.838-1.625-3.838-3.826 0-2.212 1.725-3.825 3.838-3.825zm8.35 0c2.113 0 3.838 1.613 3.838 3.825 0 2.2-1.725 3.826-3.838 3.826s-3.838-1.625-3.838-3.826c0-2.212 1.725-3.825 3.838-3.825zM66.51 3.213V14.45h-1.676V3.213h1.676zM43.469 8.55c-1.15 0-2.15.937-2.15 2.312 0 1.363 1 2.313 2.15 2.313s2.15-.95 2.15-2.313c0-1.375-1-2.312-2.15-2.312zm8.338 0c-1.15 0-2.15.937-2.15 2.312 0 1.363 1 2.313 2.15 2.313s2.15-.95 2.15-2.313c0-1.375-1-2.312-2.15-2.312zm8.3-.013c-1.162 0-2.125.988-2.125 2.338 0 1.338.975 2.3 2.125 2.3 1.138 0 2.038-.963 2.038-2.3 0-1.35-.9-2.338-2.038-2.338zm10.89-.025c-.85 0-2.038.763-1.988 2.238l3.413-1.425c-.188-.475-.75-.813-1.426-.813z" fill="#C8C7C7"/><path d="M18.626 3.394a4.231 4.231 0 0 0-5.779 1.549l-2.946 5.104c-.853 1.474.245 1.989 1.469 2.723l2.835 1.636c.96.554 2.187.225 2.74-.734l3.03-5.245a3.684 3.684 0 0 0-1.35-5.033z" fill="#EA4335"/><path d="M15.292 5.506 12.456 3.87c-1.565-.869-2.451-.926-3.094.095L5.18 11.207a4.224 4.224 0 0 0 1.55 5.772 3.684 3.684 0 0 0 5.032-1.349l4.262-7.382a2.004 2.004 0 0 0-.732-2.742z" fill="#FBBC04"/><path d="M15.837 1.784 13.846.634a4.605 4.605 0 0 0-6.291 1.685L3.763 8.886a2.026 2.026 0 0 0 .742 2.767l2.23 1.288a2.302 2.302 0 0 0 3.145-.843l4.332-7.502a3.248 3.248 0 0 1 4.438-1.189l-2.813-1.623z" fill="#34A853"/><path d="M8.094 4.197 5.94 2.957a2.008 2.008 0 0 0-2.74.733L.618 8.153a4.587 4.587 0 0 0 1.685 6.274l1.639.944 1.988 1.145.862.497a3.527 3.527 0 0 1-1.081-4.697l.669-1.155 2.449-4.232a1.999 1.999 0 0 0-.735-2.732z" fill="#4285F4"/></svg>