<svg width="92" height="93" fill="none" xmlns="http://www.w3.org/2000/svg"><path d="M16.862 81.679v-4.703a2.78 2.78 0 0 0-.803-2.155 2.802 2.802 0 0 0-2.156-.823 2.923 2.923 0 0 0-2.643 1.332 2.758 2.758 0 0 0-2.487-1.332 2.495 2.495 0 0 0-2.203 1.113v-.925H4.934v7.493h1.652v-4.154a1.746 1.746 0 0 1 1.082-1.865c.24-.097.5-.14.76-.126 1.085 0 1.636.706 1.636 1.975v4.17h1.652v-4.154a1.76 1.76 0 0 1 .455-1.423 1.774 1.774 0 0 1 1.386-.568c1.117 0 1.652.706 1.652 1.975v4.17h1.653zm24.454-7.493h-2.675v-2.273H36.99v2.273h-1.527v1.49h1.527v3.416c0 1.74.677 2.775 2.612 2.775a3.856 3.856 0 0 0 2.046-.58l-.472-1.395a3.03 3.03 0 0 1-1.448.423c-.818 0-1.086-.502-1.086-1.254v-3.386h2.675v-1.489zm13.959-.188a2.225 2.225 0 0 0-1.983 1.097v-.909H51.67v7.493h1.636v-4.201c0-1.238.535-1.928 1.606-1.928.35-.005.697.059 1.023.188l.503-1.536a3.51 3.51 0 0 0-1.164-.204zm-21.103.784a5.643 5.643 0 0 0-3.069-.784c-1.904 0-3.131.91-3.131 2.398 0 1.223.912 1.975 2.596 2.21l.771.11c.897.125 1.322.36 1.322.784 0 .58-.598.909-1.715.909a4.017 4.017 0 0 1-2.502-.784l-.771 1.27a5.443 5.443 0 0 0 3.257.972c2.172 0 3.43-1.02 3.43-2.446 0-1.316-.99-2.006-2.627-2.241l-.771-.11c-.709-.094-1.275-.235-1.275-.736 0-.549.535-.878 1.432-.878.824.012 1.63.233 2.345.642l.708-1.316zm43.842-.784a2.225 2.225 0 0 0-1.983 1.097v-.909H74.41v7.493h1.636v-4.201c0-1.238.536-1.928 1.606-1.928.35-.005.697.059 1.023.188l.503-1.536a3.512 3.512 0 0 0-1.164-.204zm-21.087 3.934a3.77 3.77 0 0 0 1.131 2.853 3.802 3.802 0 0 0 2.882 1.082 3.95 3.95 0 0 0 2.706-.894l-.787-1.317a3.316 3.316 0 0 1-1.967.674 2.416 2.416 0 0 1-1.61-.751 2.397 2.397 0 0 1 0-3.293 2.416 2.416 0 0 1 1.61-.752 3.314 3.314 0 0 1 1.967.674l.787-1.316a3.95 3.95 0 0 0-2.706-.894 3.815 3.815 0 0 0-2.882 1.082 3.784 3.784 0 0 0-1.131 2.852zm15.327 0v-3.746h-1.636v.91a2.851 2.851 0 0 0-2.377-1.098 3.961 3.961 0 0 0-2.67 1.218 3.93 3.93 0 0 0 0 5.433 3.962 3.962 0 0 0 2.67 1.218 2.864 2.864 0 0 0 2.377-1.098v.91h1.636v-3.747zm-6.09 0a2.262 2.262 0 0 1 1.492-2 2.285 2.285 0 0 1 2.435.57 2.266 2.266 0 0 1-1.645 3.829 2.264 2.264 0 0 1-1.668-.702 2.247 2.247 0 0 1-.614-1.697zm-19.75-3.934a3.96 3.96 0 0 0-2.678 1.242 3.93 3.93 0 0 0 .076 5.46 3.96 3.96 0 0 0 2.713 1.167 4.584 4.584 0 0 0 3.084-1.05l-.802-1.207a3.592 3.592 0 0 1-2.188.783 2.095 2.095 0 0 1-1.498-.463 2.078 2.078 0 0 1-.752-1.37h5.587c.015-.204.031-.408.031-.628-.016-2.335-1.463-3.934-3.572-3.934zm-.03 1.458c.494-.01.972.176 1.329.517.356.34.563.809.575 1.301h-3.903c.029-.503.254-.975.627-1.315.374-.34.866-.52 1.371-.503zm41.056 2.476v-6.755h-1.637v3.918a2.851 2.851 0 0 0-2.376-1.097 3.96 3.96 0 0 0-2.67 1.218 3.93 3.93 0 0 0 0 5.433 3.961 3.961 0 0 0 2.67 1.218 2.864 2.864 0 0 0 2.376-1.098v.91h1.637v-3.747zm2.728 2.66a.756.756 0 0 1 .538.219.75.75 0 0 1 .222.526.73.73 0 0 1-.222.525.784.784 0 0 1-.538.22.764.764 0 0 1-.706-.456.73.73 0 0 1 .162-.815.774.774 0 0 1 .544-.218zm0 1.326a.56.56 0 0 0 .409-.17.583.583 0 0 0-.184-.944.59.59 0 0 0-.641.123.582.582 0 0 0 .416.99zm.044-.93a.317.317 0 0 1 .206.06.2.2 0 0 1 .072.162.188.188 0 0 1-.057.141.276.276 0 0 1-.164.069l.227.26h-.178l-.21-.259h-.068v.26h-.149v-.692h.32zm-.172.13v.185h.17a.169.169 0 0 0 .094-.023.079.079 0 0 0 .034-.07.077.077 0 0 0-.034-.069.17.17 0 0 0-.094-.023h-.17zm-8.69-3.186a2.263 2.263 0 0 1 1.491-2 2.286 2.286 0 0 1 2.436.57 2.265 2.265 0 0 1-1.645 3.829 2.264 2.264 0 0 1-1.669-.702 2.246 2.246 0 0 1-.613-1.697zm-55.267 0v-3.746h-1.636v.91a2.852 2.852 0 0 0-2.376-1.098 3.962 3.962 0 0 0-2.67 1.218 3.93 3.93 0 0 0 0 5.433 3.962 3.962 0 0 0 2.67 1.218 2.864 2.864 0 0 0 2.376-1.098v.91h1.636v-3.747zm-6.09 0a2.263 2.263 0 0 1 1.492-2 2.286 2.286 0 0 1 2.436.57 2.265 2.265 0 0 1-1.646 3.829 2.264 2.264 0 0 1-1.668-.702 2.246 2.246 0 0 1-.613-1.697z" fill="#fff"/><path d="M58.416 17.088H33.628v44.369h24.788v-44.37z" fill="#FF5F00"/><path d="M35.202 39.274a28.077 28.077 0 0 1 2.843-12.335 28.19 28.19 0 0 1 7.977-9.85 28.427 28.427 0 0 0-29.888-3.195A28.29 28.29 0 0 0 4.5 24.304a28.135 28.135 0 0 0-4.315 14.97A28.135 28.135 0 0 0 4.5 54.244a28.292 28.292 0 0 0 11.633 10.41 28.429 28.429 0 0 0 29.888-3.196 28.19 28.19 0 0 1-7.977-9.85 28.077 28.077 0 0 1-2.843-12.334z" fill="#EB001B"/><path d="M91.857 39.274a28.134 28.134 0 0 1-4.315 14.97 28.29 28.29 0 0 1-11.632 10.41 28.427 28.427 0 0 1-29.888-3.196 28.242 28.242 0 0 0 7.972-9.852 28.13 28.13 0 0 0 0-24.664 28.243 28.243 0 0 0-7.972-9.853 28.427 28.427 0 0 1 29.888-3.195 28.29 28.29 0 0 1 11.632 10.41 28.133 28.133 0 0 1 4.315 14.97zM89.154 56.758v-.908h.368v-.185h-.937v.185h.368v.908h.201zm1.819 0v-1.095h-.288l-.33.753-.33-.753h-.287v1.095h.202v-.826l.31.712h.21l.31-.714v.828h.203z" fill="#F79E1B"/></svg>