<svg width="92" height="26" fill="none" xmlns="http://www.w3.org/2000/svg"><path fill-rule="evenodd" clip-rule="evenodd" d="M8.633.994c.82-.005 3.253-.224 4.284 3.242.695 2.335 1.801 6.159 3.32 11.473h.617c1.628-5.602 2.747-9.427 3.355-11.473C21.251.734 23.855.994 24.897.994h8.037v24.902h-8.191V11.221h-.55l-4.566 14.675h-6.163L8.897 11.21h-.55v14.686H.158V.994h8.476zm36.064 0V15.68h.654l5.555-12.076C51.984 1.2 54.282.994 54.282.994h7.927v24.902h-8.363V11.21h-.653l-5.446 12.076c-1.078 2.393-3.485 2.61-3.485 2.61h-7.927V.994h8.362zm46.417 11.834c-1.166 3.292-4.83 5.65-8.885 5.65h-8.77v7.418h-7.953V12.827h25.608z" fill="#0F754E"/><path fill-rule="evenodd" clip-rule="evenodd" d="M82.612.994H65.089c.417 5.544 5.21 10.29 10.172 10.29h16.406c.946-4.608-2.313-10.29-9.055-10.29z" fill="url(#a)"/><defs><linearGradient id="a" x1="91.827" y1="7.467" x2="65.089" y2="7.467" gradientUnits="userSpaceOnUse"><stop stop-color="#1F5CD7"/><stop offset="1" stop-color="#02AEFF"/></linearGradient></defs></svg>