<svg width="93" height="93" fill="none" xmlns="http://www.w3.org/2000/svg"><g clip-path="url(#a)"><path d="M70.998 40.242h-5.05a.701.701 0 0 0-.692.593L63.214 53.79a.42.42 0 0 0 .415.487h2.591c.24 0 .447-.176.484-.416l.58-3.672a.7.7 0 0 1 .692-.594h1.598c3.326 0 5.244-1.61 5.746-4.802.227-1.396.01-2.494-.644-3.262-.717-.844-1.989-1.29-3.678-1.29zm.582 4.732c-.275 1.813-1.66 1.813-2.998 1.813h-.761l.535-3.386a.42.42 0 0 1 .415-.355h.349c.91 0 1.771 0 2.216.52.265.31.345.771.244 1.408zM86.087 44.916h-2.416a.419.419 0 0 0-.415.355l-.106.677-.17-.245c-.524-.76-1.69-1.015-2.855-1.015-2.671 0-4.952 2.026-5.397 4.866-.23 1.417.097 2.772.9 3.717.738.87 1.791 1.231 3.045 1.231 2.153 0 3.346-1.385 3.346-1.385l-.107.672a.421.421 0 0 0 .416.488h2.177a.701.701 0 0 0 .692-.593l1.307-8.282a.422.422 0 0 0-.417-.486zm-3.37 4.71c-.231 1.382-1.329 2.31-2.727 2.31-.7 0-1.263-.226-1.623-.653-.357-.424-.492-1.028-.38-1.7.22-1.37 1.333-2.329 2.71-2.329.686 0 1.244.229 1.612.66.37.434.516 1.042.409 1.711zM88.938 40.597l-2.072 13.194a.42.42 0 0 0 .415.487h2.083a.7.7 0 0 0 .693-.594L92.1 40.728a.42.42 0 0 0-.415-.487h-2.332a.422.422 0 0 0-.415.356z" fill="#179BD7"/><path d="M34.988 40.242H29.94a.702.702 0 0 0-.693.593L27.205 53.79a.42.42 0 0 0 .416.487h2.41c.346 0 .64-.252.694-.594l.55-3.494a.7.7 0 0 1 .693-.594h1.598c3.325 0 5.245-1.61 5.746-4.802.226-1.396.01-2.494-.644-3.262-.717-.844-1.99-1.29-3.68-1.29zm.583 4.732c-.276 1.813-1.66 1.813-2.999 1.813h-.762l.535-3.386a.42.42 0 0 1 .416-.355h.349c.911 0 1.771 0 2.216.52.265.31.346.771.245 1.408zM50.079 44.916H47.66a.421.421 0 0 0-.415.355l-.107.677-.17-.245c-.523-.76-1.69-1.015-2.855-1.015-2.671 0-4.953 2.026-5.397 4.866-.231 1.417.097 2.772.9 3.717.737.87 1.791 1.231 3.045 1.231 2.153 0 3.347-1.385 3.347-1.385l-.108.672a.42.42 0 0 0 .415.488h2.177a.702.702 0 0 0 .693-.593l1.307-8.282a.42.42 0 0 0-.414-.486zm-3.37 4.71c-.233 1.382-1.33 2.31-2.728 2.31-.702 0-1.263-.226-1.623-.653-.357-.424-.493-1.028-.38-1.7.219-1.37 1.333-2.329 2.71-2.329.686 0 1.244.229 1.612.66.369.435.515 1.042.41 1.711zM62.955 44.916h-2.43a.704.704 0 0 0-.58.308l-3.351 4.94-1.42-4.747a.704.704 0 0 0-.674-.501h-2.387a.421.421 0 0 0-.4.557l2.676 7.86-2.515 3.554a.421.421 0 0 0 .343.665h2.426a.7.7 0 0 0 .577-.301l8.08-11.674a.421.421 0 0 0-.345-.661zM6.24 56.795l.386-2.454-.86-.02H1.66l2.853-18.11a.233.233 0 0 1 .232-.198h6.924c2.299 0 3.885.478 4.714 1.423.388.443.635.907.755 1.416.125.535.127 1.174.005 1.954l-.009.057v.5l.388.22c.327.173.587.372.787.6.332.378.546.86.637 1.431.094.588.063 1.286-.09 2.078-.178.91-.464 1.703-.85 2.351a4.836 4.836 0 0 1-1.348 1.478 5.463 5.463 0 0 1-1.815.82c-.668.174-1.43.262-2.267.262h-.539c-.385 0-.76.139-1.053.388-.295.254-.49.601-.55.98l-.04.222-.682 4.326-.031.158c-.008.05-.022.076-.043.093a.114.114 0 0 1-.071.025H6.24z" fill="#253B80"/><path d="M17.89 40.92c-.02.133-.044.268-.07.407-.914 4.692-4.038 6.313-8.028 6.313H7.761c-.488 0-.9.355-.975.836l-1.04 6.602-.295 1.872a.52.52 0 0 0 .513.601h3.603c.427 0 .79-.31.857-.731l.035-.183.678-4.31.044-.236a.867.867 0 0 1 .856-.733h.54c3.49 0 6.223-1.418 7.021-5.523.334-1.715.161-3.147-.721-4.154a3.446 3.446 0 0 0-.987-.76z" fill="#179BD7"/><path d="M16.935 40.539a7.289 7.289 0 0 0-.888-.197 11.267 11.267 0 0 0-1.791-.131H8.829a.866.866 0 0 0-.856.733L6.82 48.263l-.033.213a.987.987 0 0 1 .975-.836h2.031c3.99 0 7.114-1.622 8.027-6.313.027-.14.05-.274.071-.407a4.86 4.86 0 0 0-.955-.381z" fill="#222D65"/><path d="M7.973 40.944a.864.864 0 0 1 .856-.732h5.427c.643 0 1.243.042 1.79.13a7.117 7.117 0 0 1 1.093.26c.27.09.52.196.752.318.271-1.734-.002-2.914-.94-3.983-1.032-1.177-2.896-1.681-5.28-1.681H4.745a.99.99 0 0 0-.978.837L.884 54.39a.595.595 0 0 0 .587.688h4.274l1.074-6.815 1.154-7.32z" fill="#253B80"/></g><defs><clipPath id="a"><path fill="#fff" transform="translate(.876 .836)" d="M0 0h91.229v91.309H0z"/></clipPath></defs></svg>