<svg width="92" height="93" fill="none" xmlns="http://www.w3.org/2000/svg"><path d="m45.546 32.21-6.124 28.52h-7.408l6.125-28.52h7.407zM76.71 50.625l3.9-10.71 2.243 10.71H76.71zm8.268 10.104h6.85l-5.984-28.52h-6.319A3.371 3.371 0 0 0 76.37 34.3L65.255 60.73h7.78l1.544-4.26h9.502l.897 4.26zm-19.337-9.31c.032-7.527-10.447-7.944-10.376-11.307.022-1.022 1.001-2.11 3.14-2.39 1.061-.135 3.988-.245 7.306 1.277l1.298-6.05c-1.782-.642-4.076-1.26-6.93-1.26-7.322 0-12.474 3.874-12.515 9.427-.047 4.105 3.68 6.395 6.482 7.763 2.89 1.397 3.857 2.293 3.843 3.542-.02 1.914-2.304 2.761-4.43 2.793-3.726.058-5.886-1.003-7.608-1.802l-1.344 6.252c1.733.79 4.928 1.478 8.235 1.513 7.785 0 12.876-3.829 12.899-9.758zm-30.68-19.21L22.96 60.73h-7.83L9.224 37.97c-.358-1.4-.67-1.915-1.76-2.506-1.78-.963-4.721-1.865-7.307-2.425l.175-.828h12.605c1.605 0 3.05 1.064 3.418 2.906l3.12 16.505 7.705-19.411h7.782z" fill="#1434CB"/></svg>